<svg width="20" height="21" viewBox="0 0 20 21" fill="none" xmlns="http://www.w3.org/2000/svg">
    <path d="M12.5 15.5H7.5" stroke="#BCBCBC" stroke-width="1.5" stroke-linecap="round" />
    <path
        d="M18.0299 11.2984L17.7976 12.9129C17.3915 15.7357 17.1884 17.1471 16.2091 17.9903C15.2299 18.8335 13.7939 18.8335 10.9217 18.8335H9.07828C6.20615 18.8335 4.77008 18.8335 3.79086 17.9903C2.81164 17.1471 2.60855 15.7357 2.20237 12.9129L1.97007 11.2984C1.65386 9.10085 1.49576 8.00208 1.94614 7.06263C2.39653 6.12317 3.35516 5.55212 5.27243 4.41001L6.42646 3.72256C8.16754 2.68541 9.03808 2.16684 10 2.16684C10.9619 2.16684 11.8325 2.68541 13.5735 3.72256L14.7276 4.41001C16.6448 5.55212 17.6035 6.12317 18.0539 7.06263"
        stroke="#BCBCBC" stroke-width="1.5" stroke-linecap="round" />
</svg>
    