<svg width="20" height="21" viewBox="0 0 20 21" fill="none" xmlns="http://www.w3.org/2000/svg">
    <path
        d="M2.5 9.74792V13.9091C2.5 16.4896 2.5 17.7798 3.11176 18.3436C3.40351 18.6125 3.77179 18.7814 4.1641 18.8263C4.98668 18.9204 5.94729 18.0708 7.86847 16.3715C8.71768 15.6204 9.14229 15.2448 9.63356 15.1459C9.87548 15.0971 10.1245 15.0971 10.3664 15.1459C10.8577 15.2448 11.2823 15.6204 12.1315 16.3715C14.0527 18.0708 15.0133 18.9204 15.8359 18.8263C16.2282 18.7814 16.5965 18.6125 16.8882 18.3436C17.5 17.7798 17.5 16.4896 17.5 13.9091V9.74792C17.5 6.17408 17.5 4.38716 16.4016 3.27691C15.3033 2.16666 13.5355 2.16666 10 2.16666C6.46447 2.16666 4.6967 2.16666 3.59835 3.27691C2.92567 3.95688 2.66497 4.89067 2.56393 6.33332"
        stroke="#B8B8B8" stroke-width="1.5" stroke-linecap="round" />
    <path d="M12.5 5.5H7.5" stroke="#B8B8B8" stroke-width="1.5" stroke-linecap="round" />
</svg>
    